<?xml version="1.0" encoding="UTF-8"?> <!-- Generator: Adobe Illustrator 24.0.1, SVG Export Plug-In . SVG Version: 6.00 Build 0) --> <svg xmlns="http://www.w3.org/2000/svg" xmlns:xlink="http://www.w3.org/1999/xlink" id="Layer_1" x="0px" y="0px" viewBox="0 0 66.24 14.4" style="enable-background:new 0 0 66.24 14.4;" xml:space="preserve"> <path d="M0.1,7.58c0,2.16,1.5,3.86,3.61,3.86c0.99,0,1.94-0.57,2.6-1.46l-0.2,1.29H8.5l1.22-8.12H7.35L7.14,4.6 C6.58,3.61,5.67,2.96,4.63,2.96C2.06,2.96,0.1,5.21,0.1,7.58L0.1,7.58z M4.52,9.47c-1.14,0-2-0.91-2-2.07 c0-1.34,1.08-2.46,2.31-2.46c1.11,0,1.97,0.91,1.97,2.08C6.79,8.38,5.69,9.47,4.52,9.47L4.52,9.47z M20.04,6.82 c0-2.16-1.5-3.86-3.61-3.86c-1.01,0-1.95,0.57-2.62,1.46l0.21-1.29h-2.38L9.98,14.22h2.38l0.65-4.41c0.54,0.99,1.46,1.63,2.51,1.63 C18.09,11.44,20.04,9.19,20.04,6.82L20.04,6.82z M15.63,4.93c1.14,0,2,0.91,2,2.07c0,1.34-1.08,2.46-2.31,2.46 c-1.11,0-1.97-0.91-1.97-2.08C13.35,6.02,14.46,4.93,15.63,4.93L15.63,4.93z M29.06,7.94c0.11-0.39,0.15-0.8,0.15-1.17 c0-2.1-1.3-3.81-3.79-3.81C22.48,2.96,21,5.32,21,7.53c0,2.17,1.43,3.91,4.04,3.91c1.84,0,3.01-0.83,3.56-1.74l-1.59-1.16 c-0.36,0.62-0.96,0.99-1.77,0.99c-0.93,0-1.68-0.47-1.87-1.59H29.06L29.06,7.94z M25.28,4.82c0.83,0,1.46,0.57,1.53,1.55h-3.39 C23.7,5.37,24.44,4.82,25.28,4.82L25.28,4.82z M33.32,3.14h-2.2l-1.22,8.12h2.38l0.57-3.86c0.18-1.22,1.14-2.18,2.34-2.18 c0.21,0,0.44,0.02,0.67,0.08l0.34-2.26c-0.21-0.07-0.46-0.08-0.67-0.08c-0.96,0-1.77,0.49-2.46,1.72L33.32,3.14L33.32,3.14z M42.23,3.14h-1.5l0.44-2.96h-2.38l-0.44,2.96h-1.12l-0.28,1.94h1.11l-0.93,6.18h2.38l0.93-6.18h1.51L42.23,3.14L42.23,3.14z M47.97,7.94c-0.13,0.88-0.91,1.42-1.66,1.42c-0.75,0-1.46-0.5-1.32-1.5l0.72-4.72h-2.3l-0.68,4.51c-0.37,2.46,1.48,3.79,3.39,3.79 c2.34,0,3.86-1.5,4.12-3.25L51,3.14H48.7L47.97,7.94L47.97,7.94z M54.89,3.14h-2.2l-1.22,8.12h2.38l0.57-3.86 c0.18-1.22,1.14-2.18,2.34-2.18c0.21,0,0.44,0.02,0.67,0.08l0.34-2.26c-0.21-0.07-0.46-0.08-0.67-0.08c-0.96,0-1.77,0.49-2.46,1.72 L54.89,3.14L54.89,3.14z M66,7.94c0.1-0.39,0.13-0.8,0.13-1.17c0-2.07-1.29-3.76-3.74-3.76c-2.9,0-4.36,2.33-4.36,4.53 c0,2.13,1.42,3.86,3.99,3.86c1.82,0,2.98-0.81,3.53-1.73l-1.58-1.14c-0.36,0.62-0.96,0.99-1.76,0.99c-0.91,0-1.66-0.47-1.86-1.58H66 L66,7.94z M62.26,4.83c0.81,0,1.45,0.57,1.51,1.55h-3.35C60.7,5.4,61.41,4.83,62.26,4.83L62.26,4.83z"></path> </svg> 