<?xml version="1.0" encoding="UTF-8"?> <svg xmlns="http://www.w3.org/2000/svg" width="19" height="19" viewBox="0 0 19 19" fill="none"><path fill-rule="evenodd" clip-rule="evenodd" d="M18.4736 17.7276L17.2365 19L12.1571 13.7759C10.8783 14.8164 9.26211 15.4375 7.50489 15.4375C3.36005 15.4375 0 11.9817 0 7.71875C0 3.4558 3.36005 0 7.50489 0C11.6497 0 15.0098 3.4558 15.0098 7.71875C15.0098 9.52604 14.4059 11.1883 13.3942 12.5036L18.4736 17.7276ZM7.52249 13.6748C10.7108 13.6748 13.2955 11.0165 13.2955 7.7373C13.2955 4.45811 10.7108 1.7998 7.52249 1.7998C4.33416 1.7998 1.74951 4.45811 1.74951 7.7373C1.74951 11.0165 4.33416 13.6748 7.52249 13.6748Z" fill="black"></path></svg> 