<svg width="20" height="19" viewBox="0 0 20 19" fill="none" xmlns="http://www.w3.org/2000/svg">
<path fill-rule="evenodd" clip-rule="evenodd" d="M4.49224 15.4417H4.80908L2.49327 1.78684H0V0H4.0819L4.88515 4.75H19.9767L18.73 13.0625H6.29043L6.69722 15.4375H16.7957C16.8069 15.4376 16.8182 15.4375 16.8296 15.4375C17.8623 15.4375 18.6995 16.235 18.6995 17.2188C18.6995 18.2025 17.8623 19 16.8296 19C15.7968 19 14.9596 18.2025 14.9596 17.2188C14.9596 17.2108 14.9597 17.2028 14.9598 17.1948H6.23301C6.23312 17.2028 6.23318 17.2108 6.23318 17.2188C6.23318 18.2025 5.39597 19 4.36322 19C3.33048 19 2.49327 18.2025 2.49327 17.2188C2.49327 16.235 3.33048 15.4375 4.36322 15.4375C4.40659 15.4375 4.44961 15.4389 4.49224 15.4417Z" fill="black"/>
</svg>
