<?xml version="1.0" encoding="UTF-8"?> <svg xmlns="http://www.w3.org/2000/svg" width="18" height="18" viewBox="0 0 18 18" fill="none"><path fill-rule="evenodd" clip-rule="evenodd" d="M18 8.94444C18 4.01349 13.9865 0 9.05556 0V1.70336C13.0471 1.70336 16.2966 4.95289 16.2966 8.94444H18ZM0.491261 7.63592C0.173253 6.77693 -0.0570293 5.89967 0.0124208 4.96758C0.0562841 4.3937 0.271945 3.90389 0.692301 3.50181C0.96228 3.24695 1.22333 2.98444 1.48449 2.7218L1.48449 2.7218C1.66531 2.53995 1.84619 2.35806 2.03013 2.17861C2.61497 1.60107 3.34968 1.60473 3.93452 2.17861C4.2964 2.53317 4.65461 2.89504 5.01283 3.25691C5.12845 3.37253 5.24447 3.48815 5.36064 3.60391C5.59335 3.83581 5.82661 4.06825 6.05824 4.30232C6.66867 4.92006 6.67232 5.64015 6.06189 6.25423C5.95234 6.36378 5.84303 6.47355 5.73371 6.58332L5.73337 6.58367L5.73333 6.58371C5.40506 6.91335 5.07678 7.243 4.74234 7.56647C4.62537 7.67979 4.6144 7.77482 4.67654 7.91738C4.96897 8.61919 5.39298 9.24424 5.86816 9.82908C6.82584 11.0061 7.9078 12.0515 9.19811 12.8593C9.36695 12.9637 9.54524 13.0519 9.72396 13.1403L9.72399 13.1404C9.83931 13.1974 9.95481 13.2546 10.0681 13.3162C10.2179 13.3966 10.3166 13.371 10.4372 13.2468C10.8722 12.7972 11.3182 12.3549 11.7641 11.9126C12.349 11.3351 13.08 11.3314 13.6649 11.9126C14.3813 12.6217 15.0941 13.3345 15.8032 14.0509C16.399 14.6504 16.3953 15.3851 15.7959 15.9882C15.6605 16.1248 15.5227 16.2589 15.3851 16.3929L15.385 16.3929C15.1101 16.6606 14.8356 16.9277 14.5823 17.2127C14.0267 17.8341 13.3249 18.0388 12.5281 17.995C11.3657 17.9328 10.2947 17.5454 9.26025 17.0446C6.96474 15.9297 5.00552 14.3835 3.3643 12.4316C2.15075 10.9841 1.14921 9.41238 0.491261 7.63592ZM14.8053 8.94456H13.1019C13.1019 7.8626 12.6816 6.84644 11.9176 6.08249C11.1537 5.31854 10.1375 4.89818 9.05556 4.89818V3.19482C12.2247 3.19482 14.8053 5.77544 14.8053 8.94456Z" fill="white" fill-opacity="0.8"></path></svg> 