<svg xmlns="http://www.w3.org/2000/svg" xmlns:xlink="http://www.w3.org/1999/xlink" version="1.1" x="0px" y="0px" viewBox="0 0 69 74" enable-background="new 0 0 69 74" xml:space="preserve"><path fill-rule="evenodd" clip-rule="evenodd" fill="#FFFFFF" d="M4.4 4.3h60.1v38.4c0 0-12.7 8.1-29.9-2.1 C17.2 50.8 4.4 42.7 4.4 42.7V4.3z M7.5 51.2c1.3 2.2 3.5 4.6 3.5 4.6s13.6 5 23.5-2.6c9.9 7.6 23.3 2.6 23.3 2.6s2.4-2.4 3.7-4.6 c-1.7 0-13.1 3.9-27-3C20.6 55.1 9.2 51.2 7.5 51.2z M47.4 64.3c0 0-4.7 3.1-12.9 5.2c-8.3-2.1-12.9-5.2-12.9-5.2s6.2 0.1 12.9-3.4 C41.2 64.3 47.4 64.3 47.4 64.3z M0 0h69v46.9c0 0-7.9 21-34.5 27.1C7.9 67.9 0 46.9 0 46.9V0z M28.3 8.9c2-0.8 4.9-2.5 9.2-3.2 c0.7 1.7 1.1 3.6 1.1 3.6s-2.3 0.8-2.4 1.1c10.5 1.6 14.1 0.9 15.2 0.8c1.1-0.1 6.7-1.2 9.8-2.6c1.1-0.5 1.6 0.4 0.4 1.4 c-0.6 0.5-2 1.9-2 4.1s0.8 3.5 2 4.6c0.8 0.7 0.9 2-0.4 1.4c-2.8-1.2-9.4-2.7-11.9-2.9c-3.1-0.3-4 0.1-4.2 0.3 c0.2 0.3 0.9 0.3 1.8 0.6c-0.1 0.7-0.7 2.6-0.7 2.6s-5.7-1.6-6.4-2.1c-0.5-0.1-4.2 0.2-4.5 0.5c0.2 0.4 1.8 0.8 1.8 0.8l-0.4 1.5 c0 0-4.7-1.2-6-1.9c-0.8-0.1-6.6 0.1-11.6-0.5c-4.9-0.6-8.5-0.9-11.6-2.2c-2.5-1.7-0.6-3.9 3.7-5C14.5 11 18.9 9.9 28.3 8.9z M40.7 25.6c-2-0.8-4.9-2.5-9.2-3.2c-0.7 1.7-1.1 3.6-1.1 3.6s2.3 0.8 2.4 1.1c-10.5 1.6-14.1 0.9-15.2 0.8 c-1.1-0.1-6.7-1.2-9.8-2.6c-1.1-0.5-1.6 0.4-0.4 1.4c0.6 0.5 2 1.9 2 4.1s-0.8 3.5-2 4.6c-0.8 0.7-0.9 2 0.4 1.4 c2.8-1.2 9.4-2.7 11.9-2.9c3.1-0.3 4 0.1 4.2 0.3c-0.2 0.3-0.9 0.3-1.8 0.6c0.1 0.7 0.7 2.6 0.7 2.6s5.7-1.6 6.4-2.1 c0.5-0.1 4.2 0.2 4.5 0.5c-0.2 0.4-1.8 0.8-1.8 0.8l0.4 1.5c0 0 4.7-1.2 6-1.9c0.8-0.1 6.6 0.1 11.6-0.5c4.9-0.6 8.5-0.9 11.6-2.2 c2.5-1.7 0.6-3.9-3.7-5C54.5 27.8 50.1 26.7 40.7 25.6z"/></svg>